<svg width="20" height="20" viewBox="0 0 20 20" fill="none" xmlns="http://www.w3.org/2000/svg">
<g clip-path="url(#clip0_12_15)">
<path d="M10 0C8.02219 0 6.08879 0.58649 4.4443 1.6853C2.79981 2.78412 1.51808 4.3459 0.761205 6.17317C0.00432903 8.00043 -0.193704 10.0111 0.192148 11.9509C0.578 13.8907 1.53041 15.6725 2.92893 17.0711C4.32746 18.4696 6.10929 19.422 8.0491 19.8079C9.98891 20.1937 11.9996 19.9957 13.8268 19.2388C15.6541 18.4819 17.2159 17.2002 18.3147 15.5557C19.4135 13.9112 20 11.9778 20 10C20 7.34784 18.9464 4.8043 17.0711 2.92893C15.1957 1.05357 12.6522 0 10 0ZM5.714 17.414V15.985C5.68271 15.3818 5.88992 14.7906 6.29089 14.3389C6.69185 13.8872 7.25439 13.6114 7.857 13.571H12.143C12.7471 13.6114 13.3109 13.8884 13.712 14.3418C14.1132 14.7952 14.3195 15.3885 14.286 15.993V17.422C12.985 18.1799 11.5062 18.5792 10.0005 18.5792C8.49481 18.5792 7.01605 18.1799 5.715 17.422L5.714 17.414ZM15.714 16.371V15.935C15.7334 14.9614 15.3703 14.0189 14.7026 13.31C14.035 12.601 13.116 12.1821 12.143 12.143H7.857C6.88316 12.1803 5.963 12.5988 5.29496 13.3084C4.62693 14.018 4.26456 14.9617 4.286 15.936V16.358C2.99231 15.2007 2.08049 13.6779 1.67119 11.9911C1.26189 10.3042 1.3744 8.53286 1.99383 6.91137C2.61326 5.28987 3.71042 3.89466 5.14013 2.91034C6.56984 1.92603 8.26472 1.399 10.0005 1.399C11.7363 1.399 13.4312 1.92603 14.8609 2.91034C16.2906 3.89466 17.3877 5.28987 18.0072 6.91137C18.6266 8.53286 18.7391 10.3042 18.3298 11.9911C17.9205 13.6779 17.0087 15.2007 15.715 16.358L15.714 16.371Z" fill="white"/>
<path d="M10 3.427C9.2423 3.427 8.50162 3.65169 7.87161 4.07264C7.24161 4.4936 6.75058 5.09192 6.46062 5.79194C6.17066 6.49197 6.09479 7.26225 6.24261 8.00539C6.39043 8.74853 6.7553 9.43115 7.29107 9.96693C7.82685 10.5027 8.50947 10.8676 9.25261 11.0154C9.99575 11.1632 10.766 11.0873 11.4661 10.7974C12.1661 10.5074 12.7644 10.0164 13.1854 9.38639C13.6063 8.75639 13.831 8.0157 13.831 7.258C13.831 6.24196 13.4274 5.26753 12.7089 4.54908C11.9905 3.83062 11.016 3.427 10 3.427ZM10 9.557C9.5451 9.557 9.10042 9.42211 8.72219 9.16938C8.34396 8.91666 8.04916 8.55744 7.87508 8.13717C7.701 7.7169 7.65545 7.25445 7.74419 6.80829C7.83294 6.36214 8.05199 5.95232 8.37366 5.63066C8.69532 5.309 9.10514 5.08994 9.55129 5.0012C9.99745 4.91245 10.4599 4.958 10.8802 5.13208C11.3004 5.30616 11.6597 5.60096 11.9124 5.97919C12.1651 6.35742 12.3 6.8021 12.3 7.257C12.2987 7.86613 12.0558 8.44986 11.6246 8.88012C11.1934 9.31037 10.6091 9.552 10 9.552V9.557Z" fill="white"/>
</g>
<defs>
<clipPath id="clip0_12_15">
<rect width="20" height="20" fill="white"/>
</clipPath>
</defs>
</svg>
