<?xml version="1.0" encoding="UTF-8"?>
<svg id="Capa_1" data-name="Capa 1" xmlns="http://www.w3.org/2000/svg" viewBox="0 0 86.55 85.77">
  <defs>
    <style>
      .cls-1 {
        fill: #e9501a;
        stroke-width: 0px;
      }
    </style>
  </defs>
  <path class="cls-1" d="M85.87,33.69c0,7.84,0,15.68,0,23.51,0,2.05-.48,3.95-1.44,5.77-.69,1.29-1.41,2.52-2.45,3.57-1.3,1.31-2.88,2.17-4.54,2.9-2.01.89-4.02,1.78-6.03,2.68-.45.2-.9.39-1.35.6-1.27.58-2.52,1.18-3.8,1.74-1.17.52-2.36.98-3.53,1.5-1.34.59-2.68,1.2-4.01,1.8-1.04.47-2.08.93-3.12,1.39-1.94.86-3.87,1.75-5.83,2.56-.85.35-1.75.6-2.65.75-1.89.32-3.79.77-5.73.34-1.87-.41-3.77-.59-5.55-1.5-2.4-1.22-4.92-2.18-7.39-3.28-1.94-.86-3.87-1.76-5.8-2.62-.52-.23-1.07-.41-1.59-.64-2.13-.96-4.25-1.93-6.38-2.89-1.97-.88-3.96-1.75-5.94-2.61-1.56-.68-3-1.56-4.2-2.78-1.16-1.17-2.01-2.56-2.71-4.05-.93-1.96-1.1-4.05-1.1-6.16,0-15.24,0-30.49,0-45.73,0-1.04.05-2.1.28-3.11.42-1.86,1.41-3.43,3.22-4.18,1.75-.72,3.55-.58,5.26.27,1.86.93,3.7,1.9,5.55,2.86,1.69.87,3.37,1.77,5.07,2.62,1.09.55,2.21,1.03,3.3,1.56,1.74.85,3.48,1.73,5.21,2.59.28.14.57.27.85.41,1.12.53,2.23,1.06,3.35,1.58.66.31,1.33.59,1.99.9.49.23.97.5,1.46.74,1.18.58,2.39,1.12,3.55,1.72,1.74.91,3.58,1.18,5.42.56,1.44-.48,2.77-1.26,4.15-1.91,1.07-.5,2.14-.99,3.2-1.5,2.12-1.02,4.24-2.06,6.36-3.09,1.38-.67,2.76-1.33,4.13-2,2.19-1.07,4.37-2.15,6.55-3.24,2.32-1.16,4.68-2.25,6.93-3.54,1.61-.92,3.26-1.09,5-.82,1.03.16,1.83.78,2.5,1.55,1.34,1.57,1.81,3.42,1.8,5.47-.03,7.9-.01,15.79-.01,23.69h0ZM80.75,33.47c0-5.22,0-10.44,0-15.65,0-2.93,0-5.87,0-8.8,0-.95-.5-1.27-1.38-.89-.14.06-.28.14-.42.22-1.18.62-2.36,1.26-3.55,1.86-2.47,1.23-4.95,2.42-7.42,3.64-1.76.87-3.5,1.78-5.26,2.64-1.82.89-3.65,1.75-5.47,2.63-1.04.5-2.07,1.02-3.11,1.53-1.18.58-2.36,1.16-3.55,1.73-1.05.5-2.07,1.06-3.16,1.43-1.51.52-3.11.75-4.71.63-1.43-.11-2.86-.24-4.18-.91-1.14-.58-2.3-1.1-3.45-1.64-1.58-.75-3.16-1.49-4.74-2.25-1.87-.9-3.74-1.83-5.61-2.74-1.31-.64-2.62-1.27-3.92-1.91-.81-.4-1.6-.84-2.41-1.24-2.39-1.18-4.8-2.35-7.19-3.54-1.37-.68-2.72-1.41-4.09-2.1-.68-.34-1.15-.03-1.2.74,0,.14,0,.28,0,.41,0,15.99.02,31.98-.02,47.97,0,2.31.95,4.15,2.42,5.76.54.59,1.28,1.05,2,1.39,1.92.91,3.88,1.71,5.82,2.57,1.9.85,3.79,1.73,5.69,2.58,1.69.75,3.39,1.47,5.08,2.21,2.5,1.1,5,2.2,7.5,3.31,1,.44,2.02.87,3,1.36,3.08,1.54,6.29,1.8,9.57.85,1.27-.37,2.45-1.02,3.68-1.54.89-.38,1.78-.73,2.66-1.13,2.63-1.19,5.25-2.4,7.89-3.59,2.45-1.1,4.92-2.18,7.38-3.26,2.39-1.05,4.76-2.15,7.17-3.13,1.19-.49,2.17-1.18,2.95-2.17,1.26-1.59,2.06-3.33,2.05-5.45-.04-7.84-.02-15.67-.02-23.51Z"/>
</svg>