<?xml version="1.0" encoding="UTF-8"?>
<svg id="Capa_1" data-name="Capa 1" xmlns="http://www.w3.org/2000/svg" viewBox="0 0 84.26 83.49">
  <defs>
    <style>
      .cls-1 {
        fill: #fff;
        stroke-width: 0px;
      }
    </style>
  </defs>
  <path class="cls-1" d="M82.38,33.05c0,7.41,0,14.82,0,22.24,0,1.94-.45,3.74-1.36,5.46-.65,1.22-1.33,2.39-2.31,3.38-1.23,1.24-2.72,2.05-4.29,2.75-1.9.84-3.8,1.69-5.7,2.53-.43.19-.85.37-1.28.56-1.2.55-2.39,1.12-3.59,1.65-1.1.49-2.23.93-3.34,1.42-1.27.56-2.53,1.14-3.8,1.71-.98.44-1.97.87-2.95,1.31-1.84.81-3.66,1.66-5.51,2.42-.8.33-1.66.56-2.51.71-1.79.31-3.58.73-5.42.32-1.77-.39-3.57-.56-5.25-1.41-2.27-1.15-4.66-2.06-6.99-3.1-1.83-.81-3.66-1.66-5.49-2.48-.49-.22-1.01-.38-1.5-.61-2.01-.9-4.02-1.83-6.04-2.73-1.87-.84-3.74-1.66-5.62-2.47-1.48-.64-2.83-1.48-3.97-2.63-1.09-1.11-1.9-2.42-2.56-3.83-.88-1.85-1.04-3.83-1.04-5.83,0-14.41,0-28.83,0-43.24,0-.98.05-1.99.26-2.94.4-1.76,1.33-3.24,3.05-3.95,1.65-.68,3.36-.55,4.97.25,1.76.88,3.5,1.8,5.25,2.7,1.6.83,3.18,1.67,4.79,2.48,1.03.52,2.09.97,3.12,1.48,1.65.81,3.29,1.63,4.93,2.45.27.13.54.26.81.38,1.06.5,2.11,1,3.17,1.5.62.29,1.26.56,1.88.85.47.22.92.47,1.38.7,1.12.54,2.26,1.06,3.36,1.63,1.65.86,3.38,1.12,5.12.53,1.36-.46,2.62-1.19,3.93-1.8,1.01-.47,2.02-.94,3.03-1.42,2.01-.97,4.01-1.95,6.01-2.92,1.3-.63,2.61-1.26,3.91-1.89,2.07-1.01,4.13-2.03,6.19-3.06,2.19-1.1,4.42-2.13,6.55-3.34,1.52-.87,3.08-1.03,4.73-.78.97.15,1.73.74,2.36,1.47,1.27,1.49,1.71,3.24,1.7,5.17-.03,7.47-.01,14.94-.01,22.4h0ZM77.53,32.84c0-4.93,0-9.87,0-14.8,0-2.77,0-5.55,0-8.32,0-.9-.48-1.2-1.3-.84-.14.06-.27.13-.4.2-1.12.59-2.23,1.2-3.36,1.76-2.33,1.16-4.68,2.28-7.01,3.44-1.66.82-3.31,1.68-4.98,2.5-1.72.84-3.45,1.65-5.17,2.48-.98.48-1.96.97-2.94,1.45-1.12.55-2.23,1.1-3.36,1.63-.99.47-1.96,1-2.99,1.36-1.43.49-2.94.71-4.46.59-1.35-.1-2.7-.23-3.95-.86-1.07-.55-2.18-1.04-3.27-1.55-1.49-.71-2.99-1.41-4.48-2.13-1.77-.86-3.53-1.73-5.3-2.59-1.23-.6-2.47-1.2-3.7-1.81-.76-.38-1.51-.79-2.28-1.17-2.26-1.12-4.54-2.22-6.8-3.35-1.3-.65-2.57-1.34-3.87-1.98-.64-.32-1.09-.03-1.14.7,0,.13,0,.26,0,.39,0,15.12.02,30.24-.02,45.36,0,2.19.9,3.92,2.29,5.45.51.56,1.21.99,1.89,1.32,1.81.86,3.67,1.62,5.5,2.43,1.8.8,3.58,1.64,5.38,2.44,1.59.71,3.2,1.39,4.8,2.09,2.37,1.04,4.73,2.08,7.09,3.13.95.42,1.91.82,2.84,1.29,2.92,1.45,5.95,1.71,9.05.8,1.2-.35,2.32-.97,3.48-1.46.84-.36,1.68-.69,2.51-1.06,2.49-1.12,4.97-2.27,7.46-3.39,2.32-1.04,4.65-2.06,6.98-3.09,2.26-1,4.5-2.03,6.78-2.96,1.12-.46,2.05-1.12,2.79-2.05,1.19-1.51,1.95-3.15,1.94-5.15-.04-7.41-.02-14.82-.02-22.23Z"/>
</svg>