<?xml version="1.0" encoding="UTF-8"?>
<svg id="Capa_1" data-name="Capa 1" xmlns="http://www.w3.org/2000/svg" viewBox="0 0 88.09 87.28">
  <defs>
    <style>
      .cls-1 {
        fill: none;
        stroke: #e9501a;
        stroke-miterlimit: 10;
        stroke-width: 8px;
      }
    </style>
  </defs>
  <path class="cls-1" d="M83.03,33.83c0-5.44,0-10.88,0-16.31,0-3.06,0-6.11,0-9.17,0-.99-.52-1.32-1.43-.93-.15.07-.29.15-.44.22-1.23.65-2.45,1.32-3.7,1.94-2.57,1.28-5.16,2.52-7.73,3.79-1.83.91-3.65,1.85-5.48,2.75-1.89.93-3.8,1.82-5.7,2.74-1.09.52-2.16,1.07-3.24,1.6-1.23.6-2.46,1.21-3.7,1.8-1.09.52-2.16,1.11-3.29,1.5-1.58.54-3.24.78-4.91.65-1.49-.11-2.98-.25-4.35-.95-1.18-.6-2.4-1.14-3.6-1.71-1.65-.78-3.3-1.55-4.94-2.35-1.95-.94-3.9-1.9-5.84-2.85-1.36-.66-2.73-1.32-4.08-1.99-.84-.42-1.67-.87-2.51-1.29-2.49-1.23-5-2.45-7.49-3.69-1.43-.71-2.83-1.47-4.26-2.18-.71-.35-1.2-.03-1.25.77,0,.14,0,.29,0,.43,0,16.66.02,33.32-.02,49.99,0,2.41.99,4.32,2.52,6.01.56.61,1.33,1.09,2.09,1.45,2,.95,4.05,1.78,6.06,2.68,1.98.88,3.95,1.81,5.93,2.69,1.76.78,3.53,1.53,5.29,2.3,2.61,1.14,5.21,2.29,7.81,3.45,1.05.46,2.1.91,3.13,1.42,3.21,1.6,6.56,1.88,9.97.88,1.32-.39,2.56-1.07,3.83-1.61.92-.39,1.86-.76,2.77-1.17,2.74-1.24,5.47-2.5,8.22-3.74,2.56-1.15,5.12-2.27,7.69-3.4,2.49-1.1,4.96-2.24,7.48-3.27,1.24-.51,2.26-1.23,3.08-2.26,1.31-1.66,2.15-3.47,2.14-5.68-.05-8.17-.02-16.33-.02-24.5Z"/>
</svg>